# ProBuilder 5.2.4
# https://unity3d.com/unity/features/worldbuilding/probuilder
# 27/09/2025 12:22:41

mtllib ./Sign.mtl
o Sign

g Sign
v -0.289032 1.107425 0.1848962
v -0.2878981 0.7269356 0.139755
v -0.6220789 0.9189738 0.214287
v 0.6340036 0.7219796 -0.003835917
v 0.6328697 1.102469 0.0413053
v -0.3009558 1.115896 0.112922
v -0.6340036 0.9274448 0.1423137
v -0.2998228 0.7354066 0.06778073
v 0.620945 1.11094 -0.03066897
v 0.6220789 0.7304506 -0.07581067

vt 0.2680271 0.3999992
vt 0.2994177 0.3999992
vt 0.2027878 0.3999992
vt 0.2362598 0.3999992

vn 0.152251 -0.1159927 0.9815118
vn -0.4723724 0.862862 0.1798152
vn -0.1522524 0.1159933 -0.9815115
vn -0.5012996 -0.8650705 -0.0187586
vn 0.9867268 0.02202848 -0.1608883
vn 0.02295647 0.9933178 0.1131044
vn -0.0229566 -0.9933178 -0.1131047

usemtl Medieval_Material
f 3/1/1 2/1/1 1/1/1
f 7/1/3 6/1/3 8/1/3
f 1/1/1 2/1/1 4/1/1
f 4/1/1 5/1/1 1/1/1
f 3/2/2 1/2/2 6/2/2
f 6/2/2 7/2/2 3/2/2
f 8/1/3 6/1/3 9/1/3
f 9/1/3 10/1/3 8/1/3
f 7/3/4 8/3/4 2/3/4
f 2/3/4 3/3/4 7/3/4
f 5/4/5 4/4/5 10/4/5
f 10/4/5 9/4/5 5/4/5
f 6/2/6 1/2/6 5/2/6
f 5/2/6 9/2/6 6/2/6
f 2/3/7 8/3/7 10/3/7
f 10/3/7 4/3/7 2/3/7

