# ProBuilder 5.2.4
# https://unity3d.com/unity/features/worldbuilding/probuilder
# 27/09/2025 12:21:56

mtllib ./Post.mtl
o Post

g Post
v -0.08086491 0 0.05498338
v -0.08086491 1.441152 0.05498338
v 0.1883955 1.390678 0.05498338
v 0.1883955 0 0.05498338
v -0.08086491 1.472483 -0.214287
v 0.1883955 1.49882 -0.214287
v 0.0537653 1.441152 -0.07965207
v -0.08086491 0 -0.214287
v 0.1883955 0 -0.214287

vt 0.2673849 0.3976834
vt 0.2987756 0.3976834
vt 0.2021457 0.3976834
vt 0.2356177 0.3976834

vn 0 0 1
vn -0.09247316 0.9454127 0.3124796
vn -0.05863044 0.9365438 0.3425224
vn -0.02478773 0.9276749 0.3725651
vn 0 0 -1
vn 0 -1 0
vn 1 0 0
vn -1 0 0
vn 0.1480058 0.976671 0.148
vn 0.1148166 0.9867296 0.1148122
vn 0.1811949 0.9666123 0.1811878

usemtl Medieval_Material
f 4/1/1 3/1/1 2/1/1 1/1/1
f 7/2/3 3/2/4 6/2/3 5/2/2
f 6/1/5 9/1/5 8/1/5 5/1/5
f 9/3/6 4/3/6 1/3/6 8/3/6
f 9/4/7 6/4/7 3/4/7 4/4/7
f 1/4/8 2/4/8 5/4/8 8/4/8
f 3/2/11 7/2/9 5/2/10 2/2/9

